# xmcd
#
# Track frame offsets:
# 150
# 11862
# 22465
# 35112
# 48667
# 65217
# 84337
# 96002
# 117032
# 134915
# 155212
# 167927
#
# Disc length: 2571 seconds
#
#
# Revision: 0
# Processed by: cddbd v1.5.2PL0 Copyright (c) Steve Scherf et al.
# Submitted via: FreeRIP 2.944 
#
DISCID=b80a090c
DTITLE=Renato Teixeira e Natan Marques - Alvorada Brasileira
DYEAR=1998
DGENRE=
TTITLE0=Tranformação
TTITLE1=Ta na ponta da lingua
TTITLE2=Rural
TTITLE3=Invernada
TTITLE4=Alvorada brasileira
TTITLE5=Temporal
TTITLE6=Tutu com torresmo
TTITLE7=Jaci
TTITLE8=Tia Edith (cinematografica)
TTITLE9=Rosana
TTITLE10=A poeira é ouro em pó
TTITLE11=Meu limão, meu limoeiro
EXTD=
EXTT0=
EXTT1=
EXTT2=
EXTT3=
EXTT4=
EXTT5=
EXTT6=
EXTT7=
EXTT8=
EXTT9=
EXTT10=
EXTT11=
PLAYORDER=
